<?xml version="1.0" encoding="UTF-8"?>
<svg id="a" data-name="Strokes" xmlns="http://www.w3.org/2000/svg" viewBox="0 0 16 16">
  <rect y="-.01" width="16" height="16" style="fill: #f6de1e;"/>
  <path d="M8.06,10.66c.49-.28.97-.57,1.47-.85.08.12.16.23.24.34.53.67,1.22.88,2.03.71.13-.03.26-.09.37-.15.49-.3.55-.94.12-1.33-.11-.1-.24-.18-.37-.25-.36-.17-.72-.33-1.08-.49-.51-.22-1-.46-1.42-.83-.65-.57-.87-1.31-.81-2.15.08-1.14.89-1.94,2.05-2.15.5-.09,1.01-.08,1.51.04.77.19,1.31.67,1.7,1.36-.47.3-.93.6-1.41.91-.07-.11-.14-.21-.21-.3-.32-.41-.74-.55-1.24-.44-.6.13-.82.86-.4,1.31.13.14.3.25.47.34.39.19.8.36,1.19.54.44.2.86.42,1.23.73.7.57.96,1.34.89,2.21-.09,1.11-.72,1.86-1.79,2.16-1.03.29-2.05.24-3.04-.21-.66-.3-1.24-.89-1.5-1.49Z"/>
  <path d="M1.6,10.86c.5-.3.98-.6,1.47-.89.1.15.19.29.28.43.3.44.71.59,1.27.46.23-.05.4-.19.49-.42.05-.14.08-.3.1-.45.02-.13.01-.27.01-.4,0-1.93,0-3.86,0-5.79,0-.07,0-.15,0-.25.6-.02,1.2,0,1.81-.01,0,.06.02.11.02.16,0,2.01,0,4.02,0,6.03,0,.35-.03.7-.12,1.04-.24.85-.78,1.41-1.63,1.63-.85.22-1.69.19-2.48-.22-.56-.29-.95-.74-1.22-1.32Z"/>
</svg>