<?xml version="1.0" encoding="UTF-8"?>
<svg id="a" data-name="Strokes" xmlns="http://www.w3.org/2000/svg" viewBox="0 0 16 16">
  <rect width="16" height="16" style="fill: #61dafb;"/>
  <g>
    <circle cx="8" cy="8" r="1.14" style="fill: #fff;"/>
    <g>
      <path d="M8,10.62c-3.59,0-6.4-1.15-6.4-2.62s2.81-2.62,6.4-2.62,6.4,1.15,6.4,2.62-2.81,2.62-6.4,2.62ZM8,5.94c-3.44,0-5.84,1.09-5.84,2.06s2.4,2.06,5.84,2.06,5.84-1.09,5.84-2.06-2.4-2.06-5.84-2.06Z" style="fill: #fff;"/>
      <path d="M10.55,13.71c-.57,0-1.25-.31-2-.92-.99-.8-1.99-2.04-2.82-3.48-1.79-3.11-2.2-6.12-.93-6.85.65-.37,1.59-.11,2.64.75.99.8,1.99,2.04,2.82,3.48h0c1.79,3.11,2.2,6.12.93,6.85-.19.11-.41.17-.65.17ZM5.45,2.85c-.14,0-.27.03-.37.09-.84.49-.58,3.11,1.14,6.09.8,1.39,1.76,2.57,2.69,3.33.85.69,1.59.95,2.01.7.84-.49.58-3.11-1.14-6.09h0c-.8-1.39-1.76-2.57-2.69-3.33-.64-.52-1.21-.79-1.64-.79Z" style="fill: #fff;"/>
      <path d="M5.45,13.71c-.24,0-.45-.05-.65-.17-1.27-.73-.86-3.74.93-6.85.83-1.45,1.84-2.68,2.82-3.48,1.06-.86,2-1.13,2.64-.75,1.27.73.86,3.74-.93,6.85-.83,1.45-1.84,2.68-2.82,3.48-.74.6-1.43.92-2,.92ZM10.55,2.85c-.43,0-1,.27-1.64.79-.93.76-1.89,1.94-2.69,3.33-1.72,2.98-1.98,5.6-1.14,6.09.43.25,1.16,0,2.01-.7.93-.76,1.89-1.94,2.69-3.33h0c1.72-2.98,1.98-5.6,1.14-6.09-.11-.06-.23-.09-.37-.09Z" style="fill: #fff;"/>
    </g>
  </g>
</svg>