<?xml version="1.0" encoding="UTF-8"?>
<svg id="a" data-name="Strokes" xmlns="http://www.w3.org/2000/svg" viewBox="0 0 16 16">
  <rect y="-.01" width="16" height="16" style="fill: #5a9fd4;"/>
  <path id="b" data-name="path1948" d="M7.92,1.59c-.52,0-1.02.05-1.46.12-1.29.23-1.53.71-1.53,1.59v1.16h3.05v.39H3.79c-.89,0-1.66.53-1.91,1.55-.28,1.16-.29,1.89,0,3.1.22.9.74,1.55,1.62,1.55h1.05v-1.4c0-1.01.87-1.9,1.91-1.9h3.05c.85,0,1.53-.7,1.53-1.55v-2.91c0-.83-.7-1.45-1.53-1.59-.52-.09-1.07-.13-1.59-.12ZM6.27,2.52c.32,0,.57.26.57.58s-.26.58-.57.58-.57-.26-.57-.58.26-.58.57-.58Z" style="fill: #fff;"/>
  <path id="c" data-name="path1950" d="M11.42,4.85v1.36c0,1.05-.89,1.94-1.91,1.94h-3.05c-.84,0-1.53.72-1.53,1.55v2.91c0,.83.72,1.31,1.53,1.55.97.28,1.89.34,3.05,0,.77-.22,1.53-.67,1.53-1.55v-1.16h-3.05v-.39h4.58c.89,0,1.22-.62,1.53-1.55.32-.96.31-1.88,0-3.1-.22-.88-.64-1.55-1.53-1.55h-1.15ZM9.71,12.22c.32,0,.57.26.57.58s-.26.58-.57.58-.57-.26-.57-.58.26-.58.57-.58Z" style="fill: #fff;"/>
</svg>