<svg width="206" height="136" viewBox="0 0 206 136" fill="none" xmlns="http://www.w3.org/2000/svg">
<mask id="path-1-inside-1_3_29" fill="white">
<path d="M0 74C0 72.8954 0.895431 72 2 72H97C98.1046 72 99 72.8954 99 74V134C99 135.105 98.1046 136 97 136H2C0.895433 136 0 135.105 0 134V74Z"/>
</mask>
<path d="M0 74C0 72.8954 0.895431 72 2 72H97C98.1046 72 99 72.8954 99 74V134C99 135.105 98.1046 136 97 136H2C0.895433 136 0 135.105 0 134V74Z" fill="#B450BC" fill-opacity="0.2"/>
<path d="M-2 74C-2 71.7909 -0.209139 70 2 70H97C99.2091 70 101 71.7909 101 74H97H2H-2ZM101 136C101 138.209 99.2091 140 97 140H2C-0.209139 140 -2 138.209 -2 136L2 132H97L101 136ZM2 140C-0.209139 140 -2 138.209 -2 136V74C-2 71.7909 -0.209139 70 2 70V74V132V140ZM97 70C99.2091 70 101 71.7909 101 74V136C101 138.209 99.2091 140 97 140V132V74V70Z" fill="#B450BC" mask="url(#path-1-inside-1_3_29)"/>
<mask id="path-3-inside-2_3_29" fill="white">
<path d="M0 2C0 0.895431 0.895431 0 2 0H97C98.1046 0 99 0.895431 99 2V62C99 63.1046 98.1046 64 97 64H2C0.895433 64 0 63.1046 0 62V2Z"/>
</mask>
<path d="M0 2C0 0.895431 0.895431 0 2 0H97C98.1046 0 99 0.895431 99 2V62C99 63.1046 98.1046 64 97 64H2C0.895433 64 0 63.1046 0 62V2Z" fill="#B450BC" fill-opacity="0.2"/>
<path d="M-2 2C-2 -0.209139 -0.209139 -2 2 -2H97C99.2091 -2 101 -0.209139 101 2H97H2H-2ZM101 64C101 66.2091 99.2091 68 97 68H2C-0.209139 68 -2 66.2091 -2 64L2 60H97L101 64ZM2 68C-0.209139 68 -2 66.2091 -2 64V2C-2 -0.209139 -0.209139 -2 2 -2V2V60V68ZM97 -2C99.2091 -2 101 -0.209139 101 2V64C101 66.2091 99.2091 68 97 68V60V2V-2Z" fill="#B450BC" mask="url(#path-3-inside-2_3_29)"/>
<mask id="path-5-inside-3_3_29" fill="white">
<path d="M107 2C107 0.895432 107.895 0 109 0H204C205.105 0 206 0.895431 206 2V134C206 135.105 205.105 136 204 136H109C107.895 136 107 135.105 107 134V2Z"/>
</mask>
<path d="M107 2C107 0.895432 107.895 0 109 0H204C205.105 0 206 0.895431 206 2V134C206 135.105 205.105 136 204 136H109C107.895 136 107 135.105 107 134V2Z" fill="#B450BC" fill-opacity="0.2"/>
<path d="M105 2C105 -0.209139 106.791 -2 109 -2H204C206.209 -2 208 -0.209139 208 2H204H109H105ZM208 136C208 138.209 206.209 140 204 140H109C106.791 140 105 138.209 105 136L109 132H204L208 136ZM109 140C106.791 140 105 138.209 105 136V2C105 -0.209139 106.791 -2 109 -2V2V132V140ZM204 -2C206.209 -2 208 -0.209139 208 2V136C208 138.209 206.209 140 204 140V132V2V-2Z" fill="#B450BC" mask="url(#path-5-inside-3_3_29)"/>
</svg>
