<svg width="206" height="136" viewBox="0 0 206 136" fill="none" xmlns="http://www.w3.org/2000/svg">
<mask id="path-1-inside-1_3_27" fill="white">
<path d="M0 2C0 0.895431 0.895431 0 2 0H61C62.1046 0 63 0.895431 63 2V62C63 63.1046 62.1046 64 61 64H2C0.89543 64 0 63.1046 0 62V2Z"/>
</mask>
<path d="M0 2C0 0.895431 0.895431 0 2 0H61C62.1046 0 63 0.895431 63 2V62C63 63.1046 62.1046 64 61 64H2C0.89543 64 0 63.1046 0 62V2Z" fill="#B450BC" fill-opacity="0.2"/>
<path d="M-2 2C-2 -0.209139 -0.209139 -2 2 -2H61C63.2091 -2 65 -0.209139 65 2H61H2H-2ZM65 64C65 66.2091 63.2091 68 61 68H2C-0.209139 68 -2 66.2091 -2 64L2 60H61L65 64ZM2 68C-0.209139 68 -2 66.2091 -2 64V2C-2 -0.209139 -0.209139 -2 2 -2V2V60V68ZM61 -2C63.2091 -2 65 -0.209139 65 2V64C65 66.2091 63.2091 68 61 68V60V2V-2Z" fill="#B450BC" mask="url(#path-1-inside-1_3_27)"/>
<mask id="path-3-inside-2_3_27" fill="white">
<path d="M71 2C71 0.895431 71.8954 0 73 0H133C134.105 0 135 0.895431 135 2V62C135 63.1046 134.105 64 133 64H73C71.8954 64 71 63.1046 71 62V2Z"/>
</mask>
<path d="M71 2C71 0.895431 71.8954 0 73 0H133C134.105 0 135 0.895431 135 2V62C135 63.1046 134.105 64 133 64H73C71.8954 64 71 63.1046 71 62V2Z" fill="#B450BC" fill-opacity="0.2"/>
<path d="M69 2C69 -0.209139 70.7909 -2 73 -2H133C135.209 -2 137 -0.209139 137 2H133H73H69ZM137 64C137 66.2091 135.209 68 133 68H73C70.7909 68 69 66.2091 69 64L73 60H133L137 64ZM73 68C70.7909 68 69 66.2091 69 64V2C69 -0.209139 70.7909 -2 73 -2V2V60V68ZM133 -2C135.209 -2 137 -0.209139 137 2V64C137 66.2091 135.209 68 133 68V60V2V-2Z" fill="#B450BC" mask="url(#path-3-inside-2_3_27)"/>
<mask id="path-5-inside-3_3_27" fill="white">
<path d="M143 2C143 0.895431 143.895 0 145 0H204C205.105 0 206 0.895431 206 2V62C206 63.1046 205.105 64 204 64H145C143.895 64 143 63.1046 143 62V2Z"/>
</mask>
<path d="M143 2C143 0.895431 143.895 0 145 0H204C205.105 0 206 0.895431 206 2V62C206 63.1046 205.105 64 204 64H145C143.895 64 143 63.1046 143 62V2Z" fill="#B450BC" fill-opacity="0.2"/>
<path d="M141 2C141 -0.209139 142.791 -2 145 -2H204C206.209 -2 208 -0.209139 208 2H204H145H141ZM208 64C208 66.2091 206.209 68 204 68H145C142.791 68 141 66.2091 141 64L145 60H204L208 64ZM145 68C142.791 68 141 66.2091 141 64V2C141 -0.209139 142.791 -2 145 -2V2V60V68ZM204 -2C206.209 -2 208 -0.209139 208 2V64C208 66.2091 206.209 68 204 68V60V2V-2Z" fill="#B450BC" mask="url(#path-5-inside-3_3_27)"/>
<mask id="path-7-inside-4_3_27" fill="white">
<path d="M0 74C0 72.8954 0.895431 72 2 72H204C205.105 72 206 72.8954 206 74V134C206 135.105 205.105 136 204 136H2.00001C0.895436 136 0 135.105 0 134V74Z"/>
</mask>
<path d="M0 74C0 72.8954 0.895431 72 2 72H204C205.105 72 206 72.8954 206 74V134C206 135.105 205.105 136 204 136H2.00001C0.895436 136 0 135.105 0 134V74Z" fill="#B450BC" fill-opacity="0.2"/>
<path d="M-2 74C-2 71.7909 -0.209139 70 2 70H204C206.209 70 208 71.7909 208 74H204H2H-2ZM208 136C208 138.209 206.209 140 204 140H2C-0.209139 140 -2 138.209 -2 136L2 132H204L208 136ZM2 140C-0.209139 140 -2 138.209 -2 136V74C-2 71.7909 -0.209139 70 2 70V74V132V140ZM204 70C206.209 70 208 71.7909 208 74V136C208 138.209 206.209 140 204 140V132V74V70Z" fill="#B450BC" mask="url(#path-7-inside-4_3_27)"/>
</svg>
