<?xml version="1.0" encoding="UTF-8"?>
<svg id="a" data-name="Strokes" xmlns="http://www.w3.org/2000/svg" viewBox="0 0 16 16">
  <defs>
    <style>
      .b {
        fill: none;
        stroke: #FFF;
        stroke-linecap: round;
        stroke-linejoin: round;
        stroke-width: 1.5px;
      }
    </style>
  </defs>
  <circle class="b" cx="8" cy="8" r="1.98"/>
  <path class="b" d="M12.88,9.98c-.18.41-.09.88.22,1.2l.04.04c.52.51.52,1.35,0,1.86h0c-.51.52-1.35.52-1.86,0h0s-.04-.04-.04-.04c-.32-.31-.79-.4-1.2-.22-.4.17-.66.56-.66,1v.11c0,.73-.59,1.32-1.32,1.32s-1.32-.59-1.32-1.32v-.06c-.01-.45-.29-.84-.71-1-.41-.18-.88-.09-1.2.22l-.04.04c-.51.52-1.35.52-1.86,0,0,0,0,0,0,0-.52-.51-.52-1.35,0-1.86,0,0,0,0,0,0l.04-.04c.31-.32.4-.79.22-1.2-.17-.4-.56-.66-1-.66h-.11c-.73,0-1.32-.59-1.32-1.32s.59-1.32,1.32-1.32h.06c.45-.01.84-.29,1-.71.18-.41.09-.88-.22-1.2l-.04-.04c-.52-.51-.52-1.35,0-1.86,0,0,0,0,0,0,.51-.52,1.35-.52,1.86,0,0,0,0,0,0,0l.04.04c.32.31.79.4,1.2.22h.05c.4-.17.66-.56.66-1v-.11c0-.73.59-1.32,1.32-1.32s1.32.59,1.32,1.32v.06c0,.43.26.82.66,1,.41.18.88.09,1.2-.22l.04-.04c.51-.52,1.35-.52,1.86,0,0,0,0,0,0,0,.52.51.52,1.35,0,1.86,0,0,0,0,0,0l-.04.04c-.31.32-.4.79-.22,1.2v.05c.17.4.56.66,1,.66h.11c.73,0,1.32.59,1.32,1.32s-.59,1.32-1.32,1.32h-.06c-.43,0-.82.26-1,.66Z"/>
</svg>