<?xml version="1.0" encoding="UTF-8"?>
<svg id="a" data-name="Strokes" xmlns="http://www.w3.org/2000/svg" viewBox="0 0 16 16">
  <rect x="-.03" y=".03" width="16" height="16" style="fill: #3ddc84;"/>
  <path d="M10.9,9.57c-.29,0-.53-.24-.53-.53,0-.29.24-.53.53-.53s.53.24.53.53c0,.29-.24.53-.53.53M5.04,9.57c-.29,0-.53-.24-.53-.53s.24-.53.53-.53c.29,0,.53.24.53.53,0,.29-.24.53-.53.53M11.1,6.37l1.06-1.84c.06-.11.02-.24-.08-.3-.11-.06-.24-.02-.3.08h0l-1.07,1.86c-.82-.38-1.74-.58-2.73-.58s-1.91.21-2.73.58l-1.07-1.86c-.06-.11-.2-.14-.3-.08-.11.06-.14.2-.08.3h0l1.06,1.84c-1.82.99-3.07,2.84-3.25,5.02h12.75c-.18-2.18-1.43-4.02-3.25-5.02" style="fill: #fff;"/>
</svg>