<?xml version="1.0" encoding="UTF-8"?>
<svg id="a" data-name="Strokes" xmlns="http://www.w3.org/2000/svg" viewBox="0 0 16 16">
  <rect x="0" y=".01" width="16" height="16" style="fill: #a41e11;"/>
  <path d="M14.4,4.95c0-.13-.18-.24-.51-.36-.67-.24-4.18-1.64-4.86-1.89s-.95-.24-1.74.05l-5.2,2.01c-.33.13-.5.25-.49.38v1.29c0,.13.18.27.52.43.68.32,4.44,1.84,5.04,2.13s1.01.29,1.77-.1,4.29-1.85,4.97-2.2h0c.35-.18.5-.32.5-.45v-1.28" style="fill: #fff;"/>
  <path d="M14.4,9.25c0,.13-.16.26-.5.44h0c-.68.36-4.22,1.81-4.97,2.2s-1.17.39-1.77.1-4.36-1.81-5.04-2.13c-.34-.16-.51-.3-.52-.43v1.29c0,.13.18.27.52.43.68.32,4.44,1.85,5.04,2.13s1.01.29,1.77-.1,4.29-1.85,4.97-2.2h0c.35-.18.5-.32.5-.45v-1.28" style="fill: #fff;"/>
  <path d="M14.4,7.14c0,.13-.16.26-.5.44h0c-.68.36-4.22,1.81-4.97,2.2s-1.17.39-1.77.1-4.36-1.81-5.04-2.13c-.34-.16-.51-.3-.52-.43v1.29c0,.13.18.27.52.43.68.32,4.44,1.84,5.04,2.13s1.01.29,1.77-.1,4.29-1.85,4.97-2.2h0c.35-.18.5-.32.5-.45v-1.28" style="fill: #fff;"/>
</svg>