<?xml version="1.0" encoding="UTF-8"?>
<svg id="a" data-name="Strokes" xmlns="http://www.w3.org/2000/svg" viewBox="0 0 16 16">
  <defs>
    <style>
      .b {
        fill: #fff;
        fill-rule: evenodd;
      }

      .c {
        fill: #6abf4b;
      }
    </style>
  </defs>
  <rect class="c" x="-.01" y=".01" width="16" height="16"/>
  <path class="b" d="M14.19,5.48c0-.24-.13-.46-.33-.58l-5.54-3.19c-.09-.06-.2-.08-.3-.09h-.06c-.11,0-.21.03-.31.09l-5.54,3.19c-.21.12-.33.34-.33.58v8.58c.01.12.07.23.18.29.1.06.23.06.33,0l3.29-1.89c.21-.12.33-.34.33-.58v-4.01c0-.24.13-.46.33-.58l1.4-.81c.1-.06.22-.09.34-.09s.23.03.33.09l1.4.81c.21.12.33.34.33.58v4.01c0,.24.13.46.34.58l3.29,1.89c.1.06.23.06.33,0,.1-.06.17-.17.17-.29V5.48Z"/>
</svg>