<?xml version="1.0" encoding="UTF-8"?>
<svg id="a" data-name="Strokes" xmlns="http://www.w3.org/2000/svg" viewBox="0 0 16 16">
  <rect y=".01" width="16" height="16" style="fill: #2dbcaf;"/>
  <g>
    <path d="M2.57,7.21s-.03-.01-.02-.03l.13-.17s.04-.03.07-.03h2.22s.03.02.02.04l-.11.16s-.04.04-.06.04h-2.26Z" style="fill: #fff;"/>
    <path d="M1.62,7.79s-.03-.01-.02-.03l.13-.17s.04-.03.07-.03h2.84s.04.02.03.04l-.05.15s-.03.04-.06.04H1.62Z" style="fill: #fff;"/>
    <path d="M3.13,8.36s-.03-.02-.02-.04l.09-.16s.04-.04.06-.04h1.25s.04.02.04.04v.15s-.04.04-.06.04h-1.36Z" style="fill: #fff;"/>
    <g id="b" data-name="CXHf1q">
      <g>
        <path d="M9.6,7.1c-.39.1-.66.17-1.05.27-.09.02-.1.03-.18-.06-.09-.11-.16-.17-.29-.24-.39-.19-.77-.14-1.13.09-.42.27-.64.68-.64,1.18,0,.5.35.91.84.98.42.06.78-.09,1.06-.41.06-.07.11-.14.17-.23h-1.2c-.13,0-.16-.08-.12-.19.08-.19.23-.52.32-.68.02-.04.06-.1.16-.1h2.27c-.01.17-.01.34-.04.5-.07.45-.24.86-.51,1.22-.45.59-1.03.96-1.78,1.06-.61.08-1.18-.04-1.68-.41-.46-.35-.72-.81-.79-1.38-.08-.68.12-1.29.53-1.83.44-.58,1.03-.95,1.74-1.08.59-.11,1.15-.04,1.65.31.33.22.57.52.72.88.04.06.01.09-.06.11Z" style="fill: #fff;"/>
        <path d="M11.66,10.55c-.57-.01-1.08-.17-1.52-.55-.37-.32-.6-.72-.67-1.2-.11-.7.08-1.33.5-1.88.45-.6,1-.91,1.74-1.04.64-.11,1.23-.05,1.78.32.49.34.8.79.88,1.39.11.84-.14,1.53-.72,2.11-.41.42-.92.68-1.5.8-.17.03-.34.04-.5.06ZM13.15,8.03c0-.08,0-.14-.02-.21-.11-.62-.68-.97-1.27-.83-.58.13-.95.5-1.09,1.08-.11.49.12.98.57,1.18.34.15.69.13,1.02-.04.49-.26.76-.65.79-1.19Z" style="fill: #fff;"/>
      </g>
    </g>
  </g>
</svg>