<?xml version="1.0" encoding="UTF-8"?>
<svg id="a" data-name="Strokes" xmlns="http://www.w3.org/2000/svg" viewBox="0 0 16 16">
  <rect x=".01" width="16" height="16" style="fill: #092e20;"/>
  <path d="M7.07,2.69h1.92v8.87c-.98.19-1.71.26-2.49.26-2.34,0-3.56-1.06-3.56-3.09s1.29-3.22,3.3-3.22c.31,0,.55.02.83.1v-2.92h0ZM7.07,7.16c-.22-.07-.41-.1-.65-.1-.97,0-1.53.6-1.53,1.64s.54,1.58,1.52,1.58c.21,0,.39-.01.66-.05v-3.07Z" style="fill: #fff;"/>
  <path d="M12.03,5.65v4.44c0,1.53-.11,2.27-.45,2.9-.31.61-.72,1-1.57,1.42l-1.78-.85c.85-.4,1.26-.75,1.52-1.28.27-.55.36-1.18.36-2.85v-3.78h1.92ZM10.12,2.7h1.92v1.97h-1.92v-1.97Z" style="fill: #fff;"/>
</svg>