<?xml version="1.0" encoding="UTF-8"?>
<svg id="a" data-name="Strokes" xmlns="http://www.w3.org/2000/svg" viewBox="0 0 16 16">
  <defs>
    <style>
      .b {
        fill: #fff;
        fill-rule: evenodd;
      }

      .c {
        fill: #ff2d20;
      }
    </style>
  </defs>
  <rect class="c" y=".06" width="16" height="16"/>
  <path class="b" d="M14.34,4.55s0,.03,0,.05v2.75c0,.07-.04.14-.1.17l-2.31,1.33v2.63c0,.07-.04.14-.1.17l-4.81,2.77s-.02.01-.04.01c0,0,0,0-.01,0-.03,0-.07,0-.1,0,0,0-.01,0-.02,0-.01,0-.02,0-.03-.01l-4.81-2.77c-.06-.04-.1-.1-.1-.17V3.24s0-.04,0-.05c0,0,0-.01,0-.02,0-.01,0-.02.01-.03,0,0,0-.01.01-.02,0,0,.01-.02.02-.02,0,0,.01-.01.02-.02,0,0,.01-.01.02-.02h0l2.41-1.39c.06-.04.14-.04.2,0l2.41,1.39h0s.01.01.02.02c0,0,.01,0,.02.02,0,0,.01.02.02.02,0,0,.01.01.01.02,0,.01,0,.02.01.03,0,0,0,.01,0,.02,0,.02,0,.03,0,.05v5.15l2.01-1.15v-2.63s0-.04,0-.05c0,0,0-.01,0-.02,0-.01,0-.02.01-.03,0,0,0-.01.01-.02,0,0,.01-.02.02-.02,0,0,.01-.01.02-.02,0,0,.01-.01.02-.02h0l2.41-1.39c.06-.04.14-.04.2,0l2.41,1.39s.02.01.02.02c0,0,.01,0,.02.02,0,0,.01.02.02.02,0,0,.01.01.01.02,0,0,0,.02.01.03,0,0,0,.01,0,.02ZM13.95,7.23v-2.28l-.84.48-1.16.67v2.28l2.01-1.15h0ZM11.54,11.37v-2.29l-1.14.65-3.27,1.87v2.31l4.41-2.54ZM2.32,3.59v7.78l4.41,2.54v-2.31l-2.3-1.3h0s0,0,0,0c0,0-.01-.01-.02-.02,0,0-.01,0-.02-.01h0s-.01-.01-.02-.02c0,0-.01-.01-.02-.02h0s0-.02-.01-.03c0,0,0-.01,0-.02h0s0-.02,0-.03c0,0,0-.02,0-.02h0v-5.38l-1.16-.67-.84-.48h0ZM4.52,2.09l-2,1.15,2,1.15,2-1.15-2-1.15h0ZM5.57,9.29l1.16-.67V3.59l-.84.48-1.16.67v5.03l.84-.49ZM11.74,3.45l-2,1.15,2,1.15,2-1.15-2-1.15ZM11.54,6.1l-1.16-.67-.84-.48v2.28l1.16.67.84.49v-2.28ZM6.93,11.25l2.94-1.68,1.47-.84-2-1.15-2.31,1.33-2.1,1.21,2,1.13Z"/>
</svg>