<?xml version="1.0" encoding="UTF-8"?>
<svg id="a" data-name="Strokes" xmlns="http://www.w3.org/2000/svg" xmlns:xlink="http://www.w3.org/1999/xlink" viewBox="0 0 254.51 93.55">
  <defs>
    <style>
      .g {
        fill: url(#f);
      }

      .h {
        fill: url(#e);
      }

      .i {
        fill: #f6de1e;
      }

      .j {
        fill-rule: evenodd;
      }

      .j, .k {
        fill: #fff;
      }

      .l {
        fill: #2dbcaf;
      }

      .m {
        fill: #5a9fd4;
      }

      .n {
        fill: #6abf4b;
      }

      .o {
        stroke: #d3d3d3;
        stroke-width: .25px;
      }

      .o, .p {
        fill: none;
        stroke-miterlimit: 10;
      }

      .p {
        stroke: #000;
        stroke-width: .75px;
      }

      .q {
        opacity: .2;
      }
    </style>
    <linearGradient id="e" x1="43.93" y1="279.02" x2="47.19" y2="274.97" gradientTransform="translate(0 310.89) scale(1 -1)" gradientUnits="userSpaceOnUse">
      <stop offset="0" stop-color="#fff"/>
      <stop offset="1" stop-color="#fff" stop-opacity="0"/>
    </linearGradient>
    <linearGradient id="f" x1="46.49" y1="285.94" x2="46.47" y2="281.08" xlink:href="#e"/>
  </defs>
  <polyline class="o" points="102.17 46.49 140.58 46.49 140.58 36.26"/>
  <polyline class="p" points="43.63 36.26 43.63 46.49 102.17 46.49 102.17 57.29"/>
  <line class="p" x1="76.35" y1="57.29" x2="76.35" y2="46.77"/>
  <g class="q">
    <rect class="m" x="167.75" y="20.26" width="16" height="16" rx="1" ry="1"/>
    <path id="b" data-name="path1948" class="k" d="M175.68,21.86c-.52,0-1.02.05-1.46.12-1.29.23-1.53.71-1.53,1.59v1.16h3.05v.39h-4.2c-.89,0-1.66.53-1.91,1.55-.28,1.16-.29,1.89,0,3.1.22.9.74,1.55,1.62,1.55h1.05v-1.4c0-1.01.87-1.9,1.91-1.9h3.05c.85,0,1.53-.7,1.53-1.55v-2.91c0-.83-.7-1.45-1.53-1.59-.52-.09-1.07-.13-1.59-.12ZM174.02,22.79c.32,0,.57.26.57.58s-.26.58-.57.58-.57-.26-.57-.58.26-.58.57-.58Z"/>
    <path id="c" data-name="path1950" class="k" d="M179.17,25.12v1.36c0,1.05-.89,1.94-1.91,1.94h-3.05c-.84,0-1.53.72-1.53,1.55v2.91c0,.83.72,1.31,1.53,1.55.97.28,1.89.34,3.05,0,.77-.22,1.53-.67,1.53-1.55v-1.16h-3.05v-.39h4.58c.89,0,1.22-.62,1.53-1.55.32-.96.31-1.88,0-3.1-.22-.88-.64-1.55-1.53-1.55h-1.15ZM177.46,32.48c.32,0,.57.26.57.58s-.26.58-.57.58-.57-.26-.57-.58.26-.58.57-.58Z"/>
  </g>
  <g class="q">
    <rect class="l" x="202.88" y="57.29" width="16" height="16" rx="1" ry="1"/>
    <g>
      <path class="k" d="M205.45,64.49s-.03-.01-.02-.03l.13-.17s.04-.03.07-.03h2.22s.03.02.02.04l-.11.16s-.04.04-.06.04h-2.26Z"/>
      <path class="k" d="M204.51,65.07s-.03-.01-.02-.03l.13-.17s.04-.03.07-.03h2.84s.04.02.03.04l-.05.15s-.03.04-.06.04h-2.95Z"/>
      <path class="k" d="M206.02,65.64s-.03-.02-.02-.04l.09-.16s.04-.04.06-.04h1.25s.04.02.04.04v.15s-.04.04-.06.04h-1.36Z"/>
      <g id="d" data-name="CXHf1q">
        <g>
          <path class="k" d="M212.48,64.38c-.39.1-.66.17-1.05.27-.09.02-.1.03-.18-.06-.09-.11-.16-.17-.29-.24-.39-.19-.77-.14-1.13.09-.42.27-.64.68-.64,1.18,0,.5.35.91.84.98.42.06.78-.09,1.06-.41.06-.07.11-.14.17-.23h-1.2c-.13,0-.16-.08-.12-.19.08-.19.23-.52.32-.68.02-.04.06-.1.16-.1h2.27c-.01.17-.01.34-.04.5-.07.45-.24.86-.51,1.22-.45.59-1.03.96-1.78,1.06-.61.08-1.18-.04-1.68-.41-.46-.35-.72-.81-.79-1.38-.08-.68.12-1.29.53-1.83.44-.58,1.03-.95,1.74-1.08.59-.11,1.15-.04,1.65.31.33.22.57.52.72.88.04.06.01.09-.06.11Z"/>
          <path class="k" d="M214.55,67.83c-.57-.01-1.08-.17-1.52-.55-.37-.32-.6-.72-.67-1.2-.11-.7.08-1.33.5-1.88.45-.6,1-.91,1.74-1.04.64-.11,1.23-.05,1.78.32.49.34.8.79.88,1.39.11.84-.14,1.53-.72,2.11-.41.42-.92.68-1.5.8-.17.03-.34.04-.5.06ZM216.03,65.31c0-.08,0-.14-.02-.21-.11-.62-.68-.97-1.27-.83-.58.13-.95.5-1.09,1.08-.11.49.12.98.57,1.18.34.15.69.13,1.02-.04.49-.26.76-.65.79-1.19Z"/>
        </g>
      </g>
    </g>
  </g>
  <g>
    <rect x="35.63" y="20.26" width="16" height="16" rx="1" ry="1"/>
    <path class="h" d="M49.1,34.47l-7.39-9.52h-1.39v6.62h1.11v-5.2l6.79,8.78c.31-.21.6-.43.87-.67Z"/>
    <rect class="g" x="45.93" y="24.95" width="1.1" height="6.62"/>
  </g>
  <g>
    <rect class="n" x="68.35" y="57.29" width="16" height="16" rx="1" ry="1"/>
    <path class="j" d="M82.56,62.76c0-.24-.13-.46-.33-.58l-5.54-3.19c-.09-.06-.2-.08-.3-.09h-.06c-.11,0-.21.03-.31.09l-5.54,3.19c-.21.12-.33.34-.33.58v8.58c.01.12.07.23.18.29.1.06.23.06.33,0l3.29-1.89c.21-.12.33-.34.33-.58v-4.01c0-.24.13-.46.33-.58l1.4-.81c.1-.06.22-.09.34-.09s.23.03.33.09l1.4.81c.21.12.33.34.33.58v4.01c0,.24.13.46.34.58l3.29,1.89c.1.06.23.06.33,0,.1-.06.17-.17.17-.29v-8.58Z"/>
  </g>
  <g class="q">
    <rect x="132.62" y="20.26" width="16" height="16" rx="1" ry="1"/>
    <g>
      <path class="k" d="M145.48,26.22c-1.98,1.21-1.72,4.07.36,5.03-.11.27-.2.55-.33.81-.33.72-.76,1.37-1.3,1.94-.14.14-.29.28-.46.38-.35.22-.73.32-1.15.19-.21-.06-.42-.12-.62-.2-.74-.32-1.48-.32-2.22,0-.19.08-.39.14-.6.2-.48.14-.92.04-1.28-.28-.27-.23-.51-.49-.73-.76-.89-1.11-1.43-2.38-1.65-3.79-.17-1.04-.1-2.06.39-3.01.47-.91,1.19-1.5,2.2-1.72.54-.11,1.06-.02,1.57.17.21.08.41.15.62.23.3.12.59.11.89,0,.33-.13.66-.26,1-.35,1.2-.33,2.24-.02,3.11.86.05.05.1.12.14.18.03.04.04.08.07.12Z"/>
      <path class="k" d="M143.2,21.88c.05.99-.33,1.78-1.04,2.42-.44.4-.95.6-1.55.53-.21-1.33,1.08-2.9,2.59-2.95Z"/>
    </g>
  </g>
  <g>
    <rect class="n" x="94.17" y="57.29" width="16" height="16" rx="1" ry="1"/>
    <path class="j" d="M108.38,62.76c0-.24-.13-.46-.33-.58l-5.54-3.19c-.09-.06-.2-.08-.3-.09h-.06c-.11,0-.21.03-.31.09l-5.54,3.19c-.21.12-.33.34-.33.58v8.58c.01.12.07.23.18.29.1.06.23.06.33,0l3.29-1.89c.21-.12.33-.34.33-.58v-4.01c0-.24.13-.46.33-.58l1.4-.81c.1-.06.22-.09.34-.09s.23.03.33.09l1.4.81c.21.12.33.34.33.58v4.01c0,.24.13.46.34.58l3.29,1.89c.1.06.23.06.33,0,.1-.06.17-.17.17-.29v-8.58Z"/>
  </g>
  <g class="q">
    <rect class="i" x="202.88" y="20.26" width="16" height="16" rx="1" ry="1"/>
    <path d="M210.94,30.93c.49-.28.97-.57,1.47-.85.08.12.16.23.24.34.53.67,1.22.88,2.03.71.13-.03.26-.09.37-.15.49-.3.55-.94.12-1.33-.11-.1-.24-.18-.37-.25-.36-.17-.72-.33-1.08-.49-.51-.22-1-.46-1.42-.83-.65-.57-.87-1.31-.81-2.15.08-1.14.89-1.94,2.05-2.15.5-.09,1.01-.08,1.51.04.77.19,1.31.67,1.7,1.36-.47.3-.93.6-1.41.91-.07-.11-.14-.21-.21-.3-.32-.41-.74-.55-1.24-.44-.6.13-.82.86-.4,1.31.13.14.3.25.47.34.39.19.8.36,1.19.54.44.2.86.42,1.23.73.7.57.96,1.34.89,2.21-.09,1.11-.72,1.86-1.79,2.16-1.03.29-2.05.24-3.04-.21-.66-.3-1.24-.89-1.5-1.49Z"/>
    <path d="M204.48,31.13c.5-.3.98-.6,1.47-.89.1.15.19.29.28.43.3.44.71.59,1.27.46.23-.05.4-.19.49-.42.05-.14.08-.3.1-.45.02-.13.01-.27.01-.4,0-1.93,0-3.86,0-5.79,0-.07,0-.15,0-.25.6-.02,1.2,0,1.81-.01,0,.06.02.11.02.16,0,2.01,0,4.02,0,6.03,0,.35-.03.7-.12,1.04-.24.85-.78,1.41-1.63,1.63-.85.22-1.69.19-2.48-.22-.56-.29-.95-.74-1.22-1.32Z"/>
  </g>
  <line class="o" x1="210.94" y1="57.29" x2="210.94" y2="36.26"/>
</svg>