<?xml version="1.0" encoding="UTF-8"?>
<svg id="a" data-name="Layer 1" xmlns="http://www.w3.org/2000/svg" viewBox="0 0 150 30">
  <defs>
    <style>
      .b {
        fill: #b82abe;
      }
    </style>
  </defs>
  <rect class="b" x=".53" y="22.25" width="4" height="7.75"/>
  <rect class="b" x="5.9" y="21.51" width="4" height="8.49"/>
  <rect class="b" x="11.27" y="21.16" width="4" height="8.84"/>
  <rect class="b" x="16.63" y="18.17" width="4" height="11.83"/>
  <rect class="b" x="22" y="19.03" width="4" height="10.97"/>
  <rect class="b" x="27.37" y="20.89" width="4" height="9.11"/>
  <rect class="b" x="32.74" y="18.62" width="4" height="11.38"/>
  <rect class="b" x="38.11" y="14.21" width="4" height="15.79"/>
  <rect class="b" x="43.47" y="14.21" width="4" height="15.79"/>
  <rect class="b" x="48.84" y="14.87" width="4" height="15.13"/>
  <rect class="b" x="54.21" y="14.21" width="4" height="15.79"/>
  <rect class="b" x="59.58" y="14.21" width="4" height="15.79"/>
  <rect class="b" x="64.95" y="16.19" width="4" height="13.81"/>
  <rect class="b" x="70.32" y="12.31" width="4" height="17.69"/>
  <rect class="b" x="75.68" y="15.59" width="4" height="14.41"/>
  <rect class="b" x="81.05" y="15.8" width="4" height="14.2"/>
  <rect class="b" x="86.42" y="11.79" width="4" height="18.21"/>
  <rect class="b" x="91.79" y="12.92" width="4" height="17.08"/>
  <rect class="b" x="97.16" y="16.19" width="4" height="13.81"/>
  <rect class="b" x="102.53" y="12.92" width="4" height="17.08"/>
  <rect class="b" x="107.89" y="10.65" width="4" height="19.35"/>
  <rect class="b" x="113.26" y="13.26" width="4" height="16.74"/>
  <rect class="b" x="118.63" y="13.26" width="4" height="16.74"/>
  <rect class="b" x="124" y="8.36" width="4" height="21.64"/>
  <rect class="b" x="129.37" y="11.18" width="4" height="18.82"/>
  <rect class="b" x="134.73" y="8.36" width="4" height="21.64"/>
  <rect class="b" x="140.1" y="3.44" width="4" height="26.56"/>
  <rect class="b" x="145.47" width="4" height="30"/>
</svg>